<svg width="250" height="250" viewBox="0 0 250 250" fill="none" xmlns="http://www.w3.org/2000/svg">
<path d="M209.735 100.013L222.202 75.1135L197.303 87.5812L209.735 100.013Z" fill="#2362a2"/>
<path d="M205.487 102.084L193.092 89.6892L157.669 107.414L205.487 102.084Z" fill="#2362a2"/>
<path d="M154.253 50.8503L148.91 98.6579L166.649 63.2455L154.253 50.8503Z" fill="#2362a2"/>
<path d="M168.756 59.0343L181.212 34.1232L156.324 46.6027L168.756 59.0343Z" fill="#2362a2"/>
<path d="M138.898 55.3123C138.427 55.5482 138.169 56.0606 138.258 56.5859L144.769 94.8792L149.801 49.8663L138.898 55.3123Z" fill="#2362a2"/>
<path d="M142.993 111.277C142.994 111.288 142.995 111.3 142.996 111.311C142.998 111.327 143.001 111.344 143.005 111.36C143.006 111.368 143.007 111.376 143.009 111.383C143.008 111.381 143.008 111.379 143.008 111.378C143.008 111.375 143.008 111.373 143.008 111.37C143.007 111.369 143.008 111.368 143.007 111.367C142.994 111.279 142.986 111.189 142.983 111.099C142.983 111.096 142.982 111.093 142.982 111.09C142.982 111.089 142.982 111.087 142.981 111.086C142.981 111.084 142.981 111.082 142.981 111.081C142.981 111.079 142.98 111.077 142.98 111.076C142.981 111.118 142.984 111.161 142.987 111.204C142.989 111.226 142.991 111.248 142.993 111.27C142.993 111.272 142.993 111.275 142.993 111.277Z" fill="#2362a2"/>
<path d="M150.353 105.97L189.69 86.2865L170.051 66.6477L150.353 105.97Z" fill="#2362a2"/>
<path d="M145.051 113.328C145.073 113.331 145.095 113.332 145.118 113.334C145.159 113.337 145.202 113.34 145.244 113.341C145.239 113.341 145.235 113.34 145.23 113.34C145.227 113.339 145.223 113.339 145.22 113.339C145.13 113.336 145.041 113.328 144.953 113.314L144.95 113.314C144.946 113.313 144.942 113.313 144.937 113.313C144.946 113.314 144.955 113.316 144.963 113.317C144.979 113.32 144.994 113.323 145.009 113.325C145.02 113.326 145.032 113.326 145.043 113.328L145.051 113.328Z" fill="#2362a2"/>
<path d="M161.455 111.555L199.741 118.067C200.265 118.156 200.777 117.898 201.014 117.425L206.467 106.537L161.455 111.555Z" fill="#2362a2"/>
<path fill-rule="evenodd" clip-rule="evenodd" d="M0 0L250 250V0H0ZM212.406 104.875L205.067 119.527C203.959 121.739 201.556 122.944 199.088 122.525L144.913 113.31C144.905 113.309 144.897 113.306 144.889 113.305C144.888 113.304 144.887 113.304 144.886 113.304C144.886 113.304 144.885 113.303 144.884 113.303C144.877 113.302 144.871 113.3 144.864 113.298C144.783 113.282 144.702 113.262 144.622 113.238C144.616 113.236 144.611 113.235 144.605 113.233C144.599 113.232 144.593 113.231 144.587 113.229C144.58 113.227 144.573 113.225 144.566 113.223C144.56 113.221 144.556 113.218 144.551 113.216C144.548 113.216 144.546 113.214 144.543 113.213C144.542 113.213 144.541 113.212 144.54 113.212C144.531 113.209 144.522 113.204 144.513 113.201C144.488 113.191 144.464 113.181 144.439 113.17C144.427 113.165 144.415 113.159 144.403 113.154C144.363 113.137 144.323 113.123 144.284 113.104C144.283 113.104 144.281 113.103 144.28 113.102C144.273 113.099 144.267 113.098 144.261 113.095C144.258 113.093 144.255 113.092 144.253 113.091C144.248 113.088 144.243 113.086 144.238 113.084C144.237 113.083 144.236 113.082 144.234 113.081C144.233 113.08 144.231 113.079 144.229 113.078C144.22 113.073 144.211 113.066 144.201 113.061C144.2 113.06 144.198 113.059 144.197 113.058C144.195 113.057 144.193 113.056 144.192 113.055C144.146 113.03 144.102 113.002 144.059 112.973L144.049 112.967C144.03 112.954 144.01 112.944 143.991 112.931C143.99 112.93 143.988 112.929 143.987 112.929C143.985 112.928 143.984 112.927 143.983 112.926C143.98 112.924 143.977 112.923 143.974 112.921C143.971 112.919 143.967 112.917 143.964 112.915C143.955 112.908 143.944 112.902 143.934 112.895C143.931 112.893 143.929 112.891 143.926 112.888C143.921 112.884 143.917 112.88 143.912 112.876C143.911 112.875 143.91 112.874 143.908 112.873L143.907 112.872C143.822 112.807 143.739 112.739 143.662 112.662L143.661 112.661L143.659 112.659C143.582 112.582 143.513 112.499 143.449 112.413L143.448 112.412C143.447 112.412 143.447 112.411 143.446 112.41C143.446 112.41 143.445 112.409 143.445 112.409C143.442 112.405 143.439 112.401 143.435 112.398C143.432 112.394 143.429 112.391 143.426 112.387C143.422 112.382 143.419 112.376 143.415 112.37C143.412 112.366 143.409 112.361 143.406 112.357C143.404 112.353 143.402 112.35 143.4 112.346C143.398 112.344 143.397 112.341 143.395 112.338C143.394 112.337 143.393 112.335 143.392 112.334C143.391 112.332 143.391 112.331 143.39 112.33C143.382 112.319 143.376 112.308 143.369 112.297C143.364 112.289 143.36 112.281 143.355 112.273C143.324 112.225 143.293 112.178 143.266 112.129C143.265 112.127 143.264 112.125 143.263 112.123C143.261 112.122 143.26 112.12 143.259 112.118C143.256 112.112 143.252 112.106 143.248 112.1C143.246 112.097 143.244 112.094 143.243 112.091L143.237 112.083C143.234 112.075 143.23 112.068 143.227 112.06C143.225 112.057 143.224 112.053 143.222 112.05C143.221 112.047 143.22 112.044 143.219 112.041C143.218 112.041 143.218 112.04 143.218 112.04C143.217 112.039 143.217 112.038 143.217 112.037C143.199 112 143.186 111.962 143.17 111.925C143.153 111.885 143.134 111.846 143.119 111.805C143.118 111.801 143.116 111.796 143.114 111.791C143.112 111.787 143.11 111.784 143.109 111.78C143.107 111.776 143.105 111.773 143.104 111.769C143.102 111.764 143.1 111.76 143.098 111.755C143.097 111.751 143.096 111.748 143.095 111.745C143.094 111.741 143.093 111.738 143.092 111.734C143.092 111.734 143.092 111.735 143.092 111.734C143.089 111.723 143.087 111.711 143.083 111.7C143.059 111.62 143.038 111.538 143.023 111.456C143.022 111.455 143.022 111.455 143.022 111.455C143.022 111.452 143.021 111.449 143.02 111.446C143.02 111.445 143.019 111.443 143.019 111.442C143.018 111.44 143.018 111.438 143.017 111.435C143.019 111.444 143.02 111.454 143.022 111.463C143.024 111.475 143.026 111.488 143.029 111.5C143.025 111.484 143.022 111.467 143.02 111.451C143.018 111.444 143.017 111.438 143.016 111.432C143.015 111.423 143.012 111.416 143.01 111.408L133.8 57.2384C133.381 54.7687 134.586 52.3657 136.798 51.2578L151.464 43.932C151.461 43.9336 151.458 43.9356 151.455 43.9375C151.452 43.9395 151.449 43.9415 151.446 43.9431C151.449 43.9413 151.453 43.9392 151.456 43.9371C151.459 43.935 151.463 43.9328 151.467 43.931L151.471 43.9286L180.51 29.3681C182.074 28.6072 183.935 28.9354 185.172 30.1722L185.187 30.1874C186.437 31.4499 186.744 33.2691 185.968 34.8216L172.159 62.4372L193.901 84.1789L221.502 70.3586C223.056 69.5819 224.875 69.888 226.138 71.138C227.4 72.3812 227.721 74.2452 226.969 75.7918L212.408 104.87C212.408 104.871 212.407 104.871 212.407 104.872C212.405 104.875 212.404 104.878 212.402 104.881C212.399 104.885 212.397 104.889 212.394 104.894C212.396 104.89 212.399 104.886 212.401 104.883C212.403 104.88 212.404 104.877 212.406 104.875Z" fill="#2362a2"/>
</svg>
