<svg version="1.1" xmlns="http://www.w3.org/2000/svg" xmlns:xlink="http://www.w3.org/1999/xlink">

    <!-- car -->
    <symbol id="car" viewBox="0 0 48 48">
        <path fill-rule="evenodd" clip-rule="evenodd" fill="currentColor" d="M33.9,6c2.2,0,4.2,1.3,5.1,3.3l0.1,0.2l1.8,4.5l3.1,0c1.9,0,3.4,1.5,3.4,3.4
            c0,1.6-1.2,3-2.7,3.3c1.1,1.1,1.8,2.7,1.8,4.5l0,0v4.4c0,2.2-1.1,4.1-2.8,5.2l0,4.1c0,1.2-0.8,2.3-1.9,2.4l-0.2,0h-3.7
            c-1.1,0-2-1-2.1-2.2l0-0.2l0-2.4c-4,0.5-8,0.7-12.1,0.7c-4,0-8.1-0.2-12.1-0.7l0,2.4c0,1.2-0.8,2.3-1.9,2.4l-0.2,0H5.7
            c-1.1,0-2-1-2.1-2.2l0-0.2l0-4.1c-1.7-1.1-2.8-3.1-2.8-5.2l0,0v-4.4c0-1.7,0.7-3.3,1.9-4.5C1.1,20.4,0,19,0,17.4
            c0-1.8,1.4-3.3,3.2-3.4l0.2,0l3,0l1.8-4.5c0.8-2,2.7-3.4,4.9-3.5l0.2,0H33.9z M5.1,35.5l0,3.4c0,0.5,0.3,0.8,0.5,0.8l0.1,0h3.7
            c0.3,0,0.6-0.3,0.6-0.7l0-0.1l0-2.6c-1.3-0.2-2.7-0.4-4-0.6C5.7,35.6,5.4,35.6,5.1,35.5z M42.2,35.5c-0.3,0.1-0.6,0.2-0.9,0.2
            c-1.3,0.2-2.7,0.4-4,0.6l0,2.6c0,0.5,0.3,0.8,0.5,0.8l0.1,0h3.7c0.3,0,0.6-0.3,0.6-0.7l0-0.1L42.2,35.5z M40.2,20.4H7.1
            c-2.6,0-4.8,2.1-4.8,4.8l0,0v4.4c0,2.3,1.7,4.3,4,4.7c5.8,1,11.6,1.5,17.4,1.5c5.8,0,11.6-0.5,17.3-1.5c2.3-0.4,4-2.4,4-4.7l0,0
            v-4.4C45,22.5,42.8,20.4,40.2,20.4L40.2,20.4z M8.8,22.9c2.2,0,4,1.8,4,4s-1.8,4-4,4s-4-1.8-4-4S6.6,22.9,8.8,22.9z M38.5,22.9
            c2.2,0,4,1.8,4,4s-1.8,4-4,4c-2.2,0-4-1.8-4-4S36.3,22.9,38.5,22.9z M8.8,24.4c-1.4,0-2.5,1.1-2.5,2.5c0,1.4,1.1,2.5,2.5,2.5
            c1.4,0,2.5-1.1,2.5-2.5C11.2,25.5,10.1,24.4,8.8,24.4z M38.5,24.4c-1.4,0-2.5,1.1-2.5,2.5c0,1.4,1.1,2.5,2.5,2.5s2.5-1.1,2.5-2.5
            C41,25.5,39.9,24.4,38.5,24.4z M44,15.5l-2.5,0l1.5,3.7l1,0c1,0,1.9-0.8,1.9-1.9c0-1-0.8-1.8-1.7-1.9L44,15.5z M5.8,15.5l-2.4,0
            c-1,0-1.9,0.8-1.9,1.9c0,1,0.8,1.8,1.7,1.9l0.1,0l0.9,0L5.8,15.5z M33.9,7.5H13.4c-1.6,0-3,0.9-3.7,2.4L9.6,10L6,18.9
            c0.4-0.1,0.7-0.1,1.1-0.1l0,0h33.1c0.4,0,0.7,0,1.1,0.1L37.7,10c-0.6-1.5-2-2.5-3.6-2.5L33.9,7.5z"/>
	</symbol>

    <!-- doc-health -->
    <symbol id="doc-health" viewBox="0 0 48 48">
        <path fill-rule="evenodd" clip-rule="evenodd" fill="currentColor" d="M27.2,1.8l15,15.6v28.9H7.8V31.5H5.5v-8h2.2V1.8H27.2z M25.8,3.2H9.2v20.2h3.2v-7h8v7l7,0
            v8l-7,0v7h-8v-7H9.2v13.3h31.5V18.2h-15V3.2z M19,18h-5v7l-7,0v5l7,0v7h5v-7l7,0v-5l-7,0V18z M27.2,4v12.8h12.4L27.2,4z"/>
	</symbol>

    <!-- doc-search -->
    <symbol id="doc-search" viewBox="0 0 48 48">
        <path fill="currentColor" d="M29.9,23.8c-5.4,0-9.9-4.4-9.9-9.9C20,8.5,24.5,4,29.9,4c5.4,0,9.9,4.4,9.9,9.9C39.8,19.3,35.3,23.8,29.9,23.8z M29.9,5.4
            c-4.7,0-8.5,3.8-8.5,8.5s3.8,8.5,8.5,8.5c4.7,0,8.5-3.8,8.5-8.5S34.6,5.4,29.9,5.4z"/>
        <rect fill="currentColor" x="8.8" y="30.8" width="14" height="1.3"/>
        <rect fill="currentColor" x="8.8" y="23.1" width="14" height="1.3"/>
        <rect fill="currentColor" x="40.8" y="21.7" transform="matrix(0.7071 -0.7071 0.7071 0.7071 -5.4304 36.5906)" width="1.4" height="6.4"/>
        <rect fill="currentColor" x="8.8" y="15.4" width="6.3" height="1.3"/>
        <polygon fill="currentColor" points="33.5,43.8 3.8,43.8 3.8,5.6 20.3,5.6 20.3,7 5.2,7 5.2,42.4 32.1,42.4 32.1,25.9 33.5,25.9 "/>
	</symbol>

    <!-- doc-stamp -->
    <symbol id="doc-stamp" viewBox="0 0 48 48">
		<path fill="currentColor" d="M36,21.7c-0.1-0.3-0.4-0.7-0.6-1c-0.5-0.5-0.9-0.8-1.3-0.9c-0.3-0.1-0.7-0.2-1.1-0.2v-1.5c0.6,0,1.1,0.1,1.5,0.2
            c0.9,0.3,1.5,0.8,1.9,1.3c0.4,0.4,0.7,0.9,1,1.4L36,21.7z"/>
        <rect fill="currentColor" x="22.8" y="39.2" width="20" height="1.3"/>
        <path fill="currentColor" d="M42.3,43.4H23.7v-2.6h-1.8v-4l21-0.4l1.6,4.5h-2.3V43.4z M25.1,42h15.8v-2.6h1.7L42,37.7l-18.8,0.4v1.4h1.8V42z"/>
        <path fill="currentColor" d="M36.1,37.3h-6.3v-4.7c0-0.8-0.3-1.6-0.9-2c-2.3-2-3.6-4.8-3.6-7.7v-0.7c0.2-2,1-3.6,2.4-5c1.7-1.3,3.5-2,5.1-2
            c2,0,3.9,0.7,5.4,2.1c1.5,1.5,2.3,3.4,2.3,5.4c0,3.1-1.2,5.9-3.6,7.9c-0.6,0.5-0.9,1.2-0.9,2V37.3z M31.3,35.9h3.3v-3.3
            c0-1.2,0.5-2.3,1.5-3.2c2-1.7,3-4,3-6.7c0-1.6-0.7-3.1-1.9-4.4c-1.2-1.1-2.7-1.7-4.4-1.7c-1.7,0-3.2,0.9-4.1,1.6
            c-1.1,1.1-1.7,2.4-1.9,4l0,0.6c0,2.5,1.1,4.9,3,6.5c0.9,0.7,1.5,1.9,1.5,3.2V35.9z"/>
        <polygon points="22.3,43.7 4.2,43.7 4.2,4.3 34.8,4.3 34.8,13.1 33.4,13.1 33.4,5.7 5.6,5.7 5.6,42.3 22.3,42.3 "/>
        <rect fill="currentColor" x="9.8" y="27.2" width="13.6" height="1.3"/>
        <rect fill="currentColor" x="9.8" y="20.4" width="13.6" height="1.3"/>
        <rect fill="currentColor" x="9.8" y="13.6" width="6.8" height="1.3"/>
	</symbol>

    <!-- doc-taxes -->
    <symbol id="doc-taxes" viewBox="0 0 48 48">
        <path fill-rule="evenodd" clip-rule="evenodd" fill="currentColor" d="M17.9,5.3v1.5H2.2v39.5h29.5V25h1.5v22.8H0.8V5.3H17.9z M19.9,34.8v1.5H5.5v-1.5H19.9z
            M19.9,25.8v1.5H5.5v-1.5H19.9z M28,2c6.4,0,11.5,5.1,11.5,11.5S34.4,25,28,25s-11.5-5.1-11.5-11.5S21.6,2,28,2z M28,3.5
            c-5.5,0-10,4.5-10,10s4.5,10,10,10s10-4.5,10-10S33.5,3.5,28,3.5z M12.9,16.8v1.5H5.5v-1.5H12.9z M28.9,8.6v9.1h-1.5l0-5.7l-1.1,1
            l-1-1.1L28.9,8.6z M40.7,0.3c4.7,1.3,7.4,6,6.2,10.7c-0.8,3.1-3.2,5.4-6.2,6.2l-0.3,0.1L40,15.8c2.6-0.6,4.7-2.6,5.4-5.2
            c1-3.9-1.3-7.8-5.1-8.9c-2-0.5-4.1-0.2-5.8,0.9l-0.2,0.2l-0.9-1.2C35.5,0.1,38.1-0.4,40.7,0.3z"/>
	</symbol>

	<!-- house -->
    <symbol id="house" viewBox="0 0 48 48">
		<rect fill="currentColor" x="42.2" y="28" width="1.3" height="2"/>
        <rect fill="currentColor" x="42.2" y="23" width="1.3" height="2"/>
        <path fill="currentColor" d="M23.4,24.7c-2.3,0-4.2-1.9-4.2-4.2s1.9-4.2,4.2-4.2s4.2,1.9,4.2,4.2S25.7,24.7,23.4,24.7z M23.4,17.7
            c-1.5,0-2.8,1.3-2.8,2.8s1.3,2.8,2.8,2.8c1.5,0,2.8-1.3,2.8-2.8S24.9,17.7,23.4,17.7z"/>
        <rect fill="currentColor" x="32.9" y="31.8" width="6" height="1.3"/>
        <path fill="currentColor" d="M39.6,38.7h-7.3V26.3h7.3V38.7z M33.6,37.3h4.7v-9.7h-4.7V37.3z"/>
        <rect fill="currentColor" x="9.9" y="31.8" width="6" height="1.3"/>
        <path fill="currentColor" d="M16.6,38.7H9.2V26.3h7.3V38.7z M10.6,37.3h4.7v-9.7h-4.7V37.3z"/>
        <polygon fill="currentColor" points="42.9,17.7 35,17.7 23.9,6 12.8,17.7 4.9,17.7 4.9,16.3 12.2,16.3 23.9,4 35.6,16.3 42.9,16.3 "/>
        <polygon fill="currentColor" points="26.6,43 25.2,43 25.2,33.7 21.6,33.7 21.6,43 20.2,43 20.2,32.3 26.6,32.3 "/>
        <polygon fill="currentColor" points="43.6,21 42.2,21 42.2,17.3 39.9,7.7 25.9,7.7 25.9,6.3 40.9,6.3 43.6,17.2 "/>
        <polygon fill="currentColor" points="43.6,43.7 4.2,43.7 4.2,17.1 6.9,6.3 22,6.3 22,7.7 7.9,7.7 5.6,17.4 5.6,42.3 42.2,42.3 42.2,34 43.6,34 "/>
	</symbol>

    <!-- id-card -->
    <symbol id="id-card" viewBox="0 0 48 48">
        <path fill-rule="evenodd" clip-rule="evenodd" fill="currentColor" d="M41.4,6l0,6.1l6.1,0v29.1H6.1l0-6.1H0v-3.3h1.5v1.8h4.6l0-2.8c0-3.6,2.2-6.6,5.4-7.9
            c-1.4-1-2.3-2.6-2.3-4.4c0-3,2.4-5.4,5.4-5.4s5.3,2.4,5.3,5.4c0,1.8-0.9,3.4-2.3,4.4c3.1,1.2,5.3,4.1,5.4,7.6l0,0.3l0,2.8h14.8v1.5
            H7.6v4.6H46V13.6h-4.6l0,14.1h-1.5l0-20.3H25.8V6H41.4z M40.6,33.6L40.6,33.6l0.8,0v1.5h-1.6v-1.5H40.6z M14.6,23.8
            c-3.7,0-6.8,3-6.9,6.7l0,0.2l0,2.8h13.8l0-2.8C21.5,26.9,18.4,23.8,14.6,23.8z M41.4,29.8v2h-1.5v-2H41.4z M1.5,27.8v2H0v-2H1.5z
            M15.7,6v1.5H1.5v18.2H0V6H15.7z M36,22.9v1.5h-2v-1.5H36z M32,22.9v1.5h-5.2v-1.5H32z M14.6,14.6c-2.1,0-3.9,1.7-3.9,3.9
            s1.7,3.9,3.9,3.9s3.8-1.7,3.8-3.9S16.7,14.6,14.6,14.6z M36,16.7v1.5h-9.2v-1.5H36z M23.7,6v1.5h-2V6H23.7z M19.8,6v1.5h-2V6H19.8z" />
	</symbol>

    <!-- info -->
    <symbol id="info" viewBox="0 0 48 48">
        <path fill-rule="evenodd" clip-rule="evenodd" fill="currentColor" d="M30.9,43.3c0.4,0,0.7,0.3,0.8,0.7l0,0.1v3.2c0,0.4-0.3,0.7-0.7,0.8l-0.1,0H17.3
            c-0.4,0-0.7-0.3-0.8-0.7l0-0.1v-3.2c0-0.4,0.3-0.8,0.8-0.8c0.4,0,0.7,0.3,0.8,0.7l0,0.1l0,2.4h12.1l0-2.4c0-0.4,0.3-0.7,0.7-0.8
            L30.9,43.3z M24.1,0C36,0,45.7,9.7,45.7,21.6c0,11.9-9.7,21.6-21.6,21.6c-11.9,0-21.6-9.7-21.6-21.6C2.5,9.7,12.2,0,24.1,0z
            M24.1,1.5C13,1.5,4,10.5,4,21.6c0,11.1,9,20.1,20.1,20.1c11.1,0,20.1-9,20.1-20.1C44.2,10.5,35.2,1.5,24.1,1.5z M24.1,5
            c9.2,0,16.6,7.4,16.6,16.6c0,9.2-7.4,16.6-16.6,16.6c-9.2,0-16.6-7.4-16.6-16.6C7.5,12.4,14.9,5,24.1,5z M24.1,6.5
            C15.8,6.5,9,13.3,9,21.6c0,8.3,6.8,15.1,15.1,15.1c8.3,0,15.1-6.8,15.1-15.1C39.2,13.3,32.5,6.5,24.1,6.5z M26,18.6l0.2,0.2v9.2
            c0,0.3,0.1,0.5,0.2,0.7c0.1,0.2,0.3,0.3,0.5,0.4c0.2,0.1,0.3,0.1,0.5,0.2c0.2,0.1,0.4,0.1,0.6,0.1v0.8h-7.3v-0.8
            c0.2,0,0.4,0,0.6-0.1c0.2,0,0.4-0.1,0.5-0.1c0.2-0.1,0.4-0.2,0.5-0.4c0.1-0.2,0.2-0.4,0.2-0.7v-6.7c0-0.3-0.1-0.5-0.2-0.7
            c-0.1-0.2-0.3-0.4-0.5-0.5c-0.1-0.1-0.3-0.2-0.6-0.3c-0.3-0.1-0.5-0.1-0.8-0.2v-0.8L26,18.6z M24,12.3c0.6,0,1.2,0.2,1.6,0.6
            c0.4,0.4,0.7,0.9,0.7,1.5c0,0.6-0.2,1.1-0.7,1.5c-0.5,0.4-1,0.6-1.6,0.6c-0.6,0-1.2-0.2-1.6-0.6c-0.5-0.4-0.7-0.9-0.7-1.5
            c0-0.6,0.2-1.1,0.7-1.5C22.8,12.5,23.4,12.3,24,12.3z"/>
	</symbol>

    <!-- map -->
    <symbol id="map" viewBox="0 0 48 48">
        <path fill-rule="evenodd" clip-rule="evenodd" fill="currentColor" d="M31.9,0.2c4.8,0,8.7,3.9,8.7,8.7c0,0.2,0,0.5,0,0.7l7.2-3.6v32.4L32,46.9l-16-8.1L0.2,47.4V14.9
            L16,6.5l7.4,3.5c-0.1-0.4-0.1-0.7-0.1-1.1C23.2,4.1,27.1,0.2,31.9,0.2z M16.8,8.5v29.1l14.5,7.3V23.3l-0.6-0.7L30,21.8L29.4,21
            l-0.6-0.8l-0.6-0.8l-0.5-0.7c-1.9-2.7-3.2-4.9-3.9-6.8L16.8,8.5z M15.2,8.6L1.8,15.8v29l13.5-7.3V8.6z M46.2,8.5l-6.1,3
            c-0.3,1-0.9,2.1-1.6,3.4l-0.2,0.4L37.9,16l-0.2,0.3L37.3,17c-0.2,0.3-0.4,0.6-0.6,0.9l-0.3,0.5l-0.5,0.7c-0.2,0.2-0.4,0.5-0.5,0.7
            L35,20.2L34.5,21l-0.3,0.4l-0.6,0.8L32.9,23l-0.1,0.1v21.7l13.5-7.3V8.5z M31.9,1.8c-4,0-7.2,3.2-7.2,7.2c0,1.4,0.7,3.2,2,5.5
            l0.2,0.3l0.4,0.6c0.1,0.2,0.3,0.4,0.4,0.6l0.2,0.3l0.4,0.7l0.5,0.7l0.5,0.7l0.3,0.4l0.5,0.7l0.6,0.7l0.3,0.4l0.6,0.8l0.4,0.5
            l0.4-0.5l0.3-0.4l0.6-0.8l0.6-0.7l0.5-0.7l0.5-0.7l0.5-0.7l0.2-0.3l0,0l0.2-0.3l0.4-0.6l0.4-0.6c1.6-2.5,2.4-4.6,2.5-6.1l0-0.2
            l0-0.2C39.1,5,35.9,1.8,31.9,1.8z M31.9,4.6c2.4,0,4.4,2,4.4,4.4s-2,4.4-4.4,4.4s-4.4-2-4.4-4.4S29.5,4.6,31.9,4.6z M31.9,6.1
            c-1.6,0-2.9,1.3-2.9,2.9s1.3,2.9,2.9,2.9c1.6,0,2.9-1.3,2.9-2.9S33.5,6.1,31.9,6.1z"/>
	</symbol>

    <!-- newborn -->
    <symbol id="newborn" viewBox="0 0 48 48">
        <path fill-rule="evenodd" clip-rule="evenodd" fill="currentColor" d="M29.9,23.1c0.3,0,0.6,0.3,0.6,0.6l0,0v8.6l3.2,3.1c1.7,1.6,2.3,4,1.6,6.2l0,0L34,45.7
            c-0.4,1.4-1.7,2.3-3.1,2.3c-0.3,0-0.7-0.1-1-0.2c-0.8-0.3-1.5-0.8-1.9-1.6c-0.4-0.8-0.5-1.7-0.2-2.5l0,0l1.2-3.8l-2.9-2.7
            c-0.8,0.4-1.6,0.5-2.5,0.5c-0.8,0-1.7-0.2-2.5-0.5l0,0l-2.9,2.7l1.2,3.8c0.3,0.8,0.2,1.7-0.2,2.5c-0.4,0.8-1.1,1.4-1.9,1.6
            c-0.3,0.1-0.7,0.2-1,0.2c-1.4,0-2.7-0.9-3.1-2.3l0,0l-1.3-4.1c-0.7-2.2-0.1-4.6,1.6-6.2l0,0l3.2-3v-8.7c0-0.3,0.3-0.6,0.6-0.6
            s0.6,0.3,0.6,0.6l0,0v8.1c0.1,0,0.3,0,0.5,0.1c1.4,0.4,3.1,2.3,3.5,3.6c0.1,0.3,0.1,0.5,0,0.7c1.2,0.5,2.5,0.5,3.7,0
            c0-0.2,0-0.4,0-0.7c0.3-1.4,2.1-3.2,3.5-3.6c0.1,0,0.3-0.1,0.4-0.1l0,0v-8.1C29.4,23.4,29.6,23.1,29.9,23.1z M29.5,33
            c0,0-0.1,0-0.2,0c-0.9,0.3-2.4,1.8-2.7,2.8c0,0.2,0,0.3,0,0.3l0,0l3.4,3.3c0.2,0.2,0.2,0.4,0.2,0.6l0,0l-1.3,4.1
            c-0.2,0.5-0.1,1.1,0.1,1.6c0.3,0.5,0.7,0.9,1.2,1c0.2,0.1,0.4,0.1,0.6,0.1c0.9,0,1.7-0.6,2-1.5l0,0l1.3-4.1c0.6-1.8,0.1-3.7-1.3-5
            l0,0L29.5,33C29.5,33,29.5,33,29.5,33z M17.8,33C17.7,33,17.7,33,17.8,33L17.8,33l-3.5,3.3c-1.3,1.3-1.8,3.2-1.3,5l0,0l1.3,4.1
            c0.3,0.9,1.1,1.5,2,1.5c0.2,0,0.4,0,0.6-0.1c0.5-0.2,1-0.5,1.2-1c0.3-0.5,0.3-1.1,0.1-1.6l0,0l-1.3-4.1c-0.1-0.2,0-0.5,0.2-0.6l0,0
            l3.4-3.3l0,0c0,0,0-0.1,0-0.3c-0.2-0.9-1.7-2.5-2.7-2.8C17.9,33,17.8,33,17.8,33z M30,19.2c1-0.6,2.4-0.5,3.2,0.4l0,0l4.5,4.6
            c1.3,1.3,1.3,3.5,0,4.9c-1.3,1.3-3.5,1.3-4.9,0c-0.2-0.2-0.2-0.6,0-0.8c0.2-0.2,0.6-0.2,0.8,0c0.9,0.9,2.3,0.9,3.2,0
            c0.9-0.9,0.9-2.3,0-3.2l0,0l-4.5-4.6c-0.5-0.5-1.2-0.6-1.8-0.2c-2.1,1.3-4.5,2-7,2c-2.5,0-4.9-0.7-7-2c-0.6-0.3-1.3-0.3-1.8,0.2l0,0
            L10.3,25c-0.9,0.9-0.9,2.3,0,3.2c0.9,0.9,2.3,0.9,3.2,0c0.2-0.2,0.6-0.2,0.8,0c0.2,0.2,0.2,0.6,0,0.8c-0.7,0.7-1.5,1-2.4,1
            c-0.9,0-1.8-0.3-2.4-1c-1.3-1.3-1.3-3.5,0-4.9l0,0l4.5-4.5c0.9-0.9,2.2-1,3.2-0.4c1.9,1.2,4.1,1.8,6.3,1.8
            C25.9,21,28.1,20.4,30,19.2z M26.7,28.5c0.3,0,0.6,0.3,0.6,0.6s-0.3,0.6-0.6,0.6l0,0h-6.1c-0.3,0-0.6-0.3-0.6-0.6s0.3-0.6,0.6-0.6
            l0,0H26.7z M23.7,0L23.7,0c5.1,0,9.2,4.1,9.2,9.2c0,5.1-4.2,9.2-9.3,9.2c-5.1,0-9.3-4.1-9.3-9.2S18.5,0,23.7,0L23.7,0L23.7,0L23.7,0
            z M23.6,1.2c-0.9,0-1.7,0.8-1.7,1.7c0,0.9,0.8,1.7,1.7,1.7c0.5,0,0.9-0.2,1.3-0.5c0.2-0.2,0.6-0.2,0.8,0c0.2,0.2,0.2,0.6,0,0.8
            c-0.5,0.6-1.3,0.9-2.1,0.9c-1.6,0-2.9-1.3-2.9-2.9c0-0.5,0.1-0.9,0.3-1.3c-3.2,1-5.6,4.1-5.6,7.6c0,4.4,3.6,8,8.1,8s8.1-3.6,8.1-8
            C31.7,4.8,28.1,1.2,23.6,1.2z M25.6,12.2c0.3-0.2,0.6-0.1,0.8,0.2c0.2,0.3,0.1,0.6-0.2,0.8c-0.7,0.4-1.5,0.8-2.6,0.8
            c-1.1,0-1.9-0.4-2.6-0.8c-0.3-0.2-0.4-0.5-0.2-0.8c0.2-0.3,0.5-0.4,0.8-0.2c0.7,0.4,1.3,0.7,2,0.7S24.9,12.6,25.6,12.2z M20.5,8.1
            c0.3,0,0.6,0.3,0.6,0.6l0,0v1c0,0.3-0.3,0.6-0.6,0.6s-0.6-0.3-0.6-0.6l0,0v-1C19.9,8.3,20.2,8.1,20.5,8.1z M26.7,8.1
            c0.3,0,0.6,0.3,0.6,0.6l0,0v1c0,0.3-0.3,0.6-0.6,0.6c-0.3,0-0.6-0.3-0.6-0.6l0,0v-1C26.1,8.3,26.3,8.1,26.7,8.1z"/>
	</symbol>

    <!-- packet -->
    <symbol id="packet" viewBox="0 0 48 48">
        <path fill-rule="evenodd" clip-rule="evenodd" fill="currentColor" d="M18.3,5l4,4l3.3-3.3l9.3,9.3l7.2,0l5.8,10.5l-5.5,0l0,17H3.9l0-23.6l-2.6,5.2L0,23.5
            l3.9-7.8l0-0.6l4.3,0L18.3,5z M29.4,18.7l0,22.4h11.5l0-15.5l-7.7,0L29.4,18.7z M27.9,16.6H5.4v24.5h22.5V16.6z M19.6,21.9
            c1.3,0,2.4,1.1,2.4,2.4l0,0V25c0,1.3-1.1,2.4-2.4,2.4l0,0h-7.1c-1.3,0-2.4-1.1-2.4-2.4l0,0v-0.7c0-1.3,1.1-2.4,2.4-2.4l0,0H19.6z
            M19.6,23.4h-7.1c-0.5,0-0.9,0.4-0.9,0.9l0,0V25c0,0.5,0.4,0.9,0.9,0.9l0,0h7.1c0.5,0,0.9-0.4,0.9-0.9l0,0v-0.7
            C20.5,23.8,20.1,23.4,19.6,23.4L19.6,23.4z M41.2,16.6H29.9l4.2,7.5h11.3L41.2,16.6z M25.6,7.8l-2.2,2.2l5,5h4.5L25.6,7.8z
            M18.3,7.1l-7.9,7.9h15.9L18.3,7.1z"/>
	</symbol>

    <!-- planet -->
    <symbol id="planet" viewBox="0 0 48 48">
		<path fill="currentColor" d="M11.6,39.3l-1-0.8c-3.6-3.2-5.9-7.6-6.4-12.1l-0.1-0.5l0.6-0.3c1.2-0.5,2.6-0.3,3.4,0.7l1.2,1.1c0.5,0.5,1,0.8,1.5,0.8
            c1.4,0.3,2.5,1.5,2.5,3v0.2c0,0.9-0.2,1.8-0.7,2.5c-0.3,0.5-0.6,1.2-0.7,1.9L11.6,39.3z M5.6,26.7c0.5,3.6,2.3,7.1,5,9.9l0.1-1
            c0.1-0.9,0.4-1.8,0.9-2.5c0.3-0.5,0.5-1.1,0.5-1.7v-0.2c0-0.8-0.6-1.5-1.3-1.6C10,29.5,9.2,29,8.5,28.4l-1.3-1.2
            C6.8,26.7,6.2,26.6,5.6,26.7z"/>
        <path fill="currentColor" d="M5.8,22.7H4.1l0.1-0.8c0.4-3.3,1.6-6.5,3.6-9.3l0.4-0.5l2.5,1.5c0.8,0.3,1.5,1.2,1.6,2.2l0.1,0.2c0.3,1.3-0.4,2.7-1.6,3.4
            l-1.3,0.7c-0.5,0.3-0.9,0.6-1.2,1.1C7.7,22.2,6.8,22.7,5.8,22.7z M5.7,21.3h0.1c0.7,0,1.2-0.4,1.5-0.8c0.4-0.6,0.9-1.1,1.6-1.5
            l1.3-0.7c0.7-0.4,1.1-1.2,1-1.9L11,16.1c-0.1-0.6-0.4-1.1-0.9-1.3l-1.5-0.9C7.1,16.2,6.1,18.7,5.7,21.3z"/>
        <path fill="currentColor" d="M41.8,21.7c-0.9,0-1.6-0.6-1.8-1.3c-0.2-0.6-0.4-1.3-0.6-1.7c-0.3-0.7-1-0.8-1.3-0.9l-0.1,0c-0.6,0-1.1,0.2-1.5,0.6
            c-0.8,0.9-2,2.2-3.4,2c0,0,0,0,0,0c-1.1,0-1.7-1.1-1.8-1.2c-1.4-2.7-3.5-4.6-6.1-5.6c-1.6-0.5-3-0.5-3.4-0.5l-0.1,0
            c-0.4,0-0.9,0.2-1.5,0.4c-1.3,0.4-2.5,0.1-3.3-0.9c-0.7-0.8-0.9-2.2,0-3.3L16.9,9c0.4-0.4,1-0.7,1.6-0.7c2.6-0.2,4.6-1.4,6-3.7
            l0.2-0.3l0.4,0c9.3,0.6,17,7.5,18.3,16.5l0.1,0.8h-0.8c-0.1,0-0.3,0-0.4,0C42.2,21.6,42,21.7,41.8,21.7z M38,16.4h0.2
            c1.2,0.1,2,0.7,2.4,1.6c0.3,0.5,0.5,1.2,0.7,2c0.1,0.3,0.4,0.3,0.7,0.3c-1.5-7.8-8.3-13.9-16.6-14.6c-1.7,2.4-4,3.7-6.9,4
            c-0.3,0-0.5,0.1-0.7,0.3l-0.1,0.1c-0.4,0.6-0.3,1.2,0,1.6c0.3,0.3,0.9,0.8,1.9,0.5c0.6-0.2,1.3-0.4,1.9-0.4l0.1,0
            c0.5,0,2.1,0,3.9,0.5c3,1.1,5.3,3.2,6.9,6.2c0.1,0.2,0.4,0.5,0.7,0.5c0.4,0,1.1-0.2,2.3-1.6C36.2,16.8,37,16.4,38,16.4z"/>
        <path fill="currentColor" d="M34.6,38l-2.3-2l0.8-3.8l3.1-2.8l1,4.6L34.6,38z M33.8,35.5l0.5,0.4l1.5-2.2L35.5,32l-1.1,1L33.8,35.5z"/>
        <path fill="currentColor" d="M26.2,38.7c-0.7,0-1.3-0.4-1.6-1l-0.7-2.2l-1.3-5.2c0-0.1-0.1-0.2-0.1-0.3c0,0,0-0.1-0.1-0.2l-0.7-1.4
            c-0.2-0.4-0.6-0.9-1.4-0.9c-0.2,0-0.3,0-0.5,0.1l-0.6,0.2c-0.5,0.2-1.1,0-1.5-0.4l-2.1-1.8c-0.4-0.3-0.6-0.7-0.6-1.3v-0.7
            c0-0.4,0.2-0.7,0.3-0.9l2.7-3.9c0.2-0.2,0.7-0.6,1.3-0.6h2.1l2.6,1.6c0.4,0.2,0.7,0.3,1.1,0.2l1.5-0.3c0.7-0.1,1.5,0.2,1.8,1
            l1.3,3.1c0.1,0.4,0.4,0.6,0.7,0.8l1.4,0.9c0.2,0.2,0.6,0.6,0.6,1.2c0,0.4,0,0.9-0.4,1.3l-1.1,1.4c-0.2,0.3-0.4,0.7-0.4,1.1v2.2
            c0,0.5-0.2,0.8-0.5,1.2l-0.6,0.7c-0.1,0.1-0.1,0.2-0.1,0.2c0,0.1-0.1,0.1-0.1,0.2l-1.6,2.8c-0.2,0.4-0.5,0.6-0.8,0.7l-0.2,0.1
            C26.5,38.7,26.4,38.7,26.2,38.7z M25.3,35.4l0.7,1.8c0.1,0.2,0.2,0.2,0.4,0.2c0.1,0,0.1-0.1,0.1-0.1l1.6-2.8c0-0.1,0.1-0.2,0.2-0.3
            c0-0.1,0.1-0.1,0.1-0.2l0.1-0.1l0.7-0.8c0.1-0.1,0.1-0.2,0.1-0.3v-2.2c0-0.6,0.2-1.4,0.6-1.9l1.2-1.5c0.1-0.1,0.1-0.3,0.1-0.4
            c0,0-0.1-0.1-0.1-0.2l-1.2-0.8c-0.5-0.4-0.9-0.7-1.2-1.4l-1.3-3.1c0,0-0.1-0.2-0.3-0.2l-1.5,0.3c-0.8,0.1-1.4,0-2.1-0.4l-2.2-1.4
            h-1.7c0,0-0.2,0-0.3,0.2l-2.6,3.6c0,0-0.1,0.2-0.1,0.2v0.7c0,0.2,0.1,0.2,0.1,0.2l2.2,1.8c0.1,0.1,0.1,0.1,0.1,0.1l0.6-0.2
            c0.4-0.1,0.7-0.1,0.9-0.1c1.1,0,2.1,0.6,2.6,1.7l0.7,1.4c0.1,0.1,0.1,0.2,0.1,0.3c0,0,0,0.1,0.1,0.2l0.1,0.1L25.3,35.4z"/>
        <path fill="currentColor" d="M23.9,43.7C13.1,43.7,4.2,34.8,4.2,24S13.1,4.3,23.9,4.3c10.8,0,19.7,8.8,19.7,19.7S34.7,43.7,23.9,43.7z M23.9,5.7
            C13.8,5.7,5.6,13.9,5.6,24s8.2,18.3,18.3,18.3c10.1,0,18.3-8.2,18.3-18.3S34,5.7,23.9,5.7z"/>
	</symbol>

    <!-- pregnant -->
    <symbol id="pregnant" viewBox="0 0 48 48">
        <path fill-rule="evenodd" clip-rule="evenodd" fill="currentColor" d="M25.1,0c1.5-0.1,3.1,0.3,4.4,1.2c1.8,1.2,3.2,3.1,4,5.5c0.8,2.8,0.9,6.1,0.2,10
            c-0.1,0.3-0.3,0.5-0.6,0.5c0,0-0.1,0-0.1,0c-0.3-0.1-0.5-0.4-0.5-0.7c0.7-3.6,0.7-6.8-0.1-9.4c-0.7-2.2-1.9-3.9-3.5-4.9
            C27,1,24.7,0.8,22.6,1.8c1.5,0.6,2.4,1.6,3.1,3.2c0.7,1.8,1,4.3,1,8.5c0,1.7,0.6,3.1,1.6,4.1c2.6,2.4,7.3,2,7.4,2
            c0.3,0,0.6,0.2,0.6,0.5c0,0.3-0.2,0.6-0.5,0.6c-0.1,0-0.4,0-1,0c-0.7,0-1.7,0-2.8-0.3l0,0l3.8,5.8c0,0,0.1,0.1,0.1,0.2
            c1.3,2.1,1,4.8-0.7,6.7l0,0l-6.5,7c0.1,0.2,0.2,0.4,0.3,0.6c1.1,2.1,2.3,4.3,2.5,6.7c0,0.3-0.2,0.6-0.5,0.6c0,0,0,0-0.1,0
            c-0.3,0-0.5-0.2-0.6-0.5c-0.2-2.1-1.3-4.2-2.4-6.3c-0.7-1.3-1.4-2.7-1.9-4.1c0,0,0-0.1,0-0.1c-0.3-0.9-0.5-1.9-0.5-2.9
            c0-4.5,2.8-8.4,2.9-8.6c0.1-0.1,0.3-0.2,0.4-0.2c0.2,0,0.4,0.1,0.5,0.2l0,0l2.7,3.1c0,0,0,0,0,0.1c0.2,0.4,0.2,0.8,0,1.2l0,0
            L27.3,37c0.2,0.7,0.5,1.3,0.9,2l0,0l6.2-6.7c1.3-1.5,1.6-3.6,0.6-5.3l0,0l-0.1-0.1L30.4,20c0,0,0,0,0,0c-1-0.3-2-0.9-2.8-1.6
            c-1.3-1.2-2-2.9-2-5c0-7.5-1-10.1-4.3-10.8c-1.5,0.9-1.6,2.2-1.6,3.6c0,1-0.1,2.1-0.8,2.9c0,2.6,0.8,3.4,3,3.4
            c0.2,0,0.4,0.1,0.5,0.3c0,0,0.6,1.2,0.4,2.9c-0.4,2.2-2,4.3-4.7,6.2c-1.3,0.9-2.1,2.1-2.1,3.2c0,0.9,0.4,1.7,1.2,2.3
            c0.2,0.1,0.3,0.3,0.2,0.5c0,0.2-0.1,0.4-0.3,0.5c-0.1,0-5.4,3.2-5.4,8.7c0,3.7,1.6,5.8,2.9,7.6c0.7,0.9,1.3,1.8,1.6,2.7
            c0.1,0.3-0.1,0.6-0.4,0.7c0,0-0.1,0-0.1,0c-0.3,0-0.5-0.2-0.6-0.4c-0.2-0.7-0.7-1.4-1.4-2.3c-1.3-1.8-3.1-4.2-3.1-8.3
            c0-2.5,1-5,3-7.2c0.9-1,1.7-1.7,2.3-2.1c-0.7-0.7-1.1-1.7-1.1-2.7c0-1.5,0.9-3,2.6-4.1c2.4-1.7,3.9-3.5,4.2-5.3
            c0.2-0.9,0-1.6-0.1-1.9c-3.3-0.2-3.7-2.5-3.7-4.8c0-0.2,0.1-0.3,0.2-0.4c0.6-0.6,0.6-1.4,0.6-2.3c0-1.1,0.1-2.4,1-3.5l0,0L21,1.4
            C22.3,0.5,23.7,0.1,25.1,0z M20.7,34c0.8,0,1.6,0.3,2.1,0.9c1.2,1.2,1.3,3,0.2,4.6c-1.6,2.3-4.2,3.7-4.3,3.7c-0.1,0-0.2,0.1-0.3,0.1
            s-0.2,0-0.3-0.1c-0.1-0.1-2.7-1.4-4.3-3.7c-1.1-1.6-1-3.4,0.2-4.6c0.6-0.6,1.3-0.9,2.1-0.9c0.8,0,1.6,0.3,2.1,0.9
            c0,0,0.1,0.1,0.1,0.1c0,0,0.1-0.1,0.1-0.1C19.2,34.3,19.9,34,20.7,34z M20.7,35.2c-0.5,0-1,0.2-1.3,0.5c-0.1,0.1-0.3,0.3-0.5,0.5
            l0,0l0,0c-0.2,0.2-0.6,0.2-0.8,0l0,0l0,0c-0.2-0.2-0.4-0.4-0.5-0.5c-0.4-0.4-0.8-0.5-1.3-0.5c-0.5,0-1,0.2-1.3,0.5l0,0l-0.1,0.1
            c-0.7,0.8-0.6,1.9,0.1,3c1.1,1.7,2.9,2.8,3.6,3.2c0.7-0.4,2.5-1.5,3.6-3.2c0.8-1.1,0.8-2.3,0-3.1C21.7,35.4,21.2,35.2,20.7,35.2z
            M29,26.9c-0.7,1.3-2.3,4.2-2.3,7.3c0,0.4,0,0.9,0.1,1.3l0,0l4.2-6.2L29,26.9z"/>
	</symbol>

    <!-- review -->
    <symbol id="review" viewBox="0 0 48 48">
        <path fill="currentColor" d="M15.7,5.7v1.5H3.4v38.5h28.7V27.9h1.5v19.2H1.9V5.7H15.7z M20.5,34.4v1.5h-14v-1.5H20.5z M20.5,25.7v1.5h-14
            v-1.5H20.5z M37.2,6.7c5.5,0,10,4.5,10,10s-4.5,10-10,10c-2.9,0-5.6-1.2-7.5-3.4L29.5,23l1.1-0.9c1.6,1.9,4,3.1,6.6,3.1
            c4.7,0,8.5-3.8,8.5-8.5s-3.8-8.5-8.5-8.5l-0.2,0l-0.2,0l-0.1-1.5C36.9,6.7,37,6.7,37.2,6.7z M37.7,19.5c1.4,0,2.6,0.4,3.4,1.1
            l0.1,0.1l-1,1c-0.4-0.4-1.4-0.8-2.5-0.8c-1,0-2,0.3-2.4,0.7l-0.1,0.1l-1-1C34.9,20,36.2,19.5,37.7,19.5z M26.5,1.8
            c5.5,0,10,4.5,10,10s-4.5,10-10,10s-10-4.5-10-10S21,1.8,26.5,1.8z M26.5,3.3c-4.7,0-8.5,3.8-8.5,8.5s3.8,8.5,8.5,8.5
            s8.5-3.8,8.5-8.5S31.2,3.3,26.5,3.3z M13.7,16.9v1.5H6.5v-1.5H13.7z M29.4,13.9l1.3,0.7c-0.8,1.4-2.4,2.3-4.2,2.3
            c-1.7,0-3.2-0.8-4-2.1l-0.1-0.2l1.3-0.7c0.6,1,1.7,1.6,2.9,1.6c1.2,0,2.2-0.5,2.8-1.4L29.4,13.9z M40.6,13.2c0.5,0,1,0.4,1,1
            s-0.4,1-1,1c-0.5,0-1-0.4-1-1S40.1,13.2,40.6,13.2z M23.1,8.4c0.5,0,1,0.4,1,1s-0.4,1-1,1c-0.5,0-1-0.4-1-1S22.5,8.4,23.1,8.4z
            M29.9,8.4c0.5,0,1,0.4,1,1s-0.4,1-1,1c-0.5,0-1-0.4-1-1S29.4,8.4,29.9,8.4z"/>
    </symbol>
</svg>
