<svg width="100" height="100" viewBox="0 0 100 100" fill="none" xmlns="http://www.w3.org/2000/svg">
<path d="M57.409 8.61057C58.7789 8.61057 59.1703 9.39335 59.366 9.98043V10.1761V10.3718C59.366 10.7632 59.366 11.3503 59.1703 11.546L58.9746 11.9374V12.1331L59.1703 12.3288L59.7574 13.3072L60.1488 13.8943C60.9315 15.2642 61.91 17.0254 61.91 18.7867C61.91 21.7221 62.4971 25.2446 65.2368 28.18H65.0411H64.8454H64.6497L64.2583 27.9843C63.4756 27.7887 62.6928 27.2016 61.7143 26.4188C61.5186 26.4188 61.5186 26.8102 61.5186 27.3973V27.9843V28.5714V29.3542C61.5186 29.5499 61.5186 29.9413 61.5186 30.137V30.9198C61.5186 31.1155 61.5186 31.1155 61.5186 31.3112V32.0939C61.7143 33.2681 61.91 34.2466 62.3014 34.8337C62.6928 35.225 61.91 35.0294 61.1272 34.2466L60.7358 33.8552L60.1488 33.2681C59.9531 32.8767 59.7574 32.681 59.5617 32.8767H59.366L59.1703 33.0724L58.9746 33.4638L58.7789 33.8552L58.5832 34.2466C58.1918 35.8121 57.8004 38.1605 59.1703 40.5088C59.366 40.9002 59.1703 40.9002 58.7789 40.7045L58.5832 40.5088L58.1918 40.3131C57.6047 39.9217 56.6262 39.1389 56.2349 38.3562C56.2349 38.1605 56.0392 38.3562 55.8435 38.7476L55.6478 39.1389L55.4521 39.5303V40.1174C55.0607 41.8787 55.0607 44.8141 56.4306 47.3581C56.6262 47.7495 56.2349 47.5538 55.8435 47.3581L55.4521 47.1624L55.0607 46.9667L55.4521 46.771C55.4521 46.771 55.2564 46.771 55.2564 46.5753L55.0607 46.3797C54.865 46.184 54.865 46.184 54.6693 45.9883V45.7926C54.2779 45.2055 53.6908 46.5753 54.6693 48.728L55.8435 50.8806L56.2349 51.6634L56.6262 52.4462C57.2133 53.4247 57.6047 54.2074 57.9961 54.5988C58.3875 54.9902 59.1703 55.5773 60.1488 55.9687L61.7143 56.7515C61.91 56.9472 62.1057 56.9472 62.3014 57.1429H62.4971L63.6713 57.9256L64.2583 58.317C65.8239 59.2955 68.1722 60.4697 70.3249 60.4697C73.6517 60.4697 75.4129 58.1213 75.4129 56.9472H75.2172L74.0431 56.7515H73.6517L73.2603 56.5558L72.6732 56.3601L72.0861 56.1644H71.8904L71.3033 55.9687C68.3679 54.7945 64.6497 52.2505 64.6497 45.9883C64.6497 41.0959 67.7808 37.5734 70.3249 35.4207L70.912 35.0294L71.499 34.638L71.8904 34.2466L72.4775 33.8552L73.0646 33.4638L74.8259 35.225L74.2388 35.6164L73.456 36.2035L72.8689 36.5949L72.6732 36.7906L72.0861 37.3777C69.9335 39.3346 67.1938 42.4658 67.1938 45.9883C67.1938 51.8591 72.4775 54.5988 75.6086 54.5988V54.4031V54.2074V54.0117V53.816V53.6204C75.6086 53.6204 75.6086 53.6204 75.6086 53.4247V53.229V52.8376C75.6086 52.6419 75.6086 52.6419 75.6086 52.4462L75.4129 52.0548C74.8259 50.6849 73.456 49.1194 69.9335 47.5538H70.3249H70.7163H71.1077C72.2818 47.5538 74.2388 47.7495 75.6086 49.7065C76.1957 50.4892 76.3914 49.9022 76.5871 49.7065C76.7828 49.5108 77.7613 48.3366 79.3268 48.9237L78.9354 49.1194C78.9354 49.1194 78.9354 49.1194 78.9354 49.3151L78.7398 49.5108C78.1527 50.2935 77.3699 52.0548 78.1527 54.4031H78.5441H78.7398L79.1311 54.2074H79.3268L79.7182 54.0117C81.4795 53.0333 84.2192 51.0763 84.2192 46.771C84.2192 42.8571 81.4795 39.9217 78.7398 37.3777L77.957 36.5949L76.3914 35.225C76.1957 35.0294 76.1957 35.0294 76 34.8337L75.4129 34.2466C75.0216 34.0509 74.8259 33.6595 74.6302 33.4638L74.4345 33.2681C74.0431 32.8767 73.6517 32.2896 73.2603 31.8982L71.499 30.137C69.5421 28.18 67.7808 26.0274 67.3895 22.8963L67.1938 22.5049H66.9981C66.411 22.1135 64.8454 21.3307 64.8454 18.7867C64.8454 17.2211 65.8239 15.6556 66.8024 14.4814L67.1938 13.8943L67.5852 13.5029L67.7808 13.3072L68.1722 12.9159L68.5636 12.7202L68.7593 12.5245H68.955C68.955 12.5245 68.955 12.5245 68.955 12.7202L68.7593 13.6986L68.5636 14.09C68.3679 14.8728 68.3679 15.8513 69.1507 15.8513C70.3249 15.8513 72.8689 12.9159 72.8689 12.3288C72.8689 12.1331 73.0646 12.3288 73.0646 12.5245V12.7202V13.1115V13.5029L72.8689 13.8943C72.6732 14.4814 72.4775 15.0685 72.0861 15.4599L71.8904 15.6556C71.6947 16.047 71.3033 16.2427 71.1077 16.6341L69.9335 18.0039C69.3464 18.7867 68.7593 19.3738 69.3464 19.9609C69.9335 20.7436 71.3033 19.7652 72.0861 18.9824L72.2818 18.591L72.4775 18.3953V18.1996C72.4775 18.0039 72.6732 18.0039 72.4775 18.1996V18.3953V18.7867L72.2818 19.1781V19.3738L72.0861 19.7652C71.6947 20.7436 70.912 21.9178 69.7378 22.5049V22.7006V22.8963V23.092V23.2877V23.4834V23.6791V23.8748L69.9335 24.0705L70.1292 24.4618L70.3249 24.8532C70.3249 24.8532 70.3249 25.0489 70.5206 25.0489L70.7163 25.4403L71.1077 25.8317L71.499 26.2231L71.6947 26.4188L72.0861 27.0059L72.6732 27.593L73.2603 28.18C72.8689 28.3757 73.0646 28.3757 73.0646 28.5714L73.6517 29.1585L74.4345 29.9413L75.2172 30.7241L76.1957 31.5069L77.1742 32.2896L77.957 33.0724L79.1311 34.0509L80.1096 34.8337L81.0881 35.6164L82.0666 36.5949L82.2623 36.7906H82.4579C82.6536 36.5949 82.8493 36.3992 82.8493 35.8121V35.6164C82.8493 34.4423 83.2407 33.2681 83.8278 32.8767V33.6595V34.2466V35.225V36.0078C83.8278 37.5734 84.0235 39.3346 84.6106 39.726C85.1977 39.9217 85.3934 39.3346 85.3934 38.5519C85.5891 37.7691 86.1761 36.9863 86.3718 37.182L86.1761 37.7691L85.9805 38.5519V39.1389V39.726C85.7848 41.2916 85.7848 42.8571 86.7632 43.4442C86.9589 43.4442 86.9589 43.4442 87.1546 43.2485L87.3503 43.0528C87.546 42.6614 88.1331 42.4658 89.1116 42.8571L88.9159 42.0744L88.7202 42.2701C87.9374 42.6614 86.7632 44.0313 86.9589 45.9883C87.1546 48.728 84.6106 55.773 78.1527 56.7515V56.9472V57.1429L77.957 57.5342L77.7613 57.7299L77.5656 58.1213L77.3699 58.5127C76.3914 60.274 74.4345 62.818 69.5421 62.2309L69.9335 62.6223L70.3249 63.0137L70.912 63.6008L71.3033 64.1879L71.6947 64.7749C71.6947 64.9706 71.8904 64.9706 71.8904 65.1663L72.2818 65.7534C74.0431 68.2975 75.8043 72.0157 75.6086 76.1253L75.4129 75.7339L75.2172 74.9511L74.8259 73.9726L74.4345 72.9941L74.0431 72.407C74.0431 72.2113 73.8474 72.2113 73.8474 72.0157L73.456 71.4286L73.0646 70.6458L72.6732 69.863L72.0861 69.0802L71.499 68.2975C71.1077 67.5147 70.5206 66.9276 69.9335 66.1448L69.1507 65.362C67.1938 63.0137 64.8454 60.8611 62.1057 59.2955L61.5186 58.9041C61.3229 58.9041 61.1272 59.0998 61.3229 59.8826C61.5186 60.8611 60.7358 63.0137 60.1488 63.9922C60.1488 64.1879 59.9531 64.1879 59.9531 64.5793V64.9706V65.1663V65.5577V66.1448V66.3405V66.9276V67.5147C60.3444 70.8415 62.1057 75.3425 67.5852 76.908C68.5636 77.1037 69.3464 77.1037 70.1292 77.1037H70.5206H70.912L71.3033 76.908V77.1037L71.1077 77.2994L70.912 77.4951L71.1077 77.1037C70.3249 77.6908 68.955 78.4736 66.2153 78.4736C65.0411 78.4736 65.0411 80.2348 66.8024 80.2348C66.8024 80.2348 66.8024 80.2348 66.8024 80.4305V80.8219V81.2133V81.409L66.6067 81.9961L66.2153 83.1703L66.0196 83.953L65.8239 84.7358L65.6282 85.5186L65.2368 86.3014L64.8454 87.0842L64.454 87.8669C64.454 88.0626 64.2583 88.0626 64.2583 88.2583L63.867 89.0411C63.0842 90.8024 62.1057 92.3679 61.1272 93.3464C60.5401 93.7378 60.9315 93.9335 61.1272 94.1292H61.3229H61.5186C61.7143 94.1292 61.91 94.3249 62.3014 94.5205L62.6928 94.7162C62.6928 94.7162 62.8885 94.7162 62.8885 94.9119L63.2799 95.1076C63.4756 95.3033 63.6713 95.3033 63.867 95.499H63.6713C63.2799 95.499 62.8885 95.499 62.8885 95.6947V96.8689C62.6928 97.456 62.4971 98.2388 61.3229 98.2388C59.7574 98.2388 59.366 96.6732 59.366 95.8904C59.366 95.1076 58.5832 95.1076 58.1918 95.1076C57.9961 95.1076 56.8219 95.499 56.4306 96.8689L56.2349 97.456C56.0392 98.8258 55.4521 100 54.2779 100C52.908 100 52.5167 99.0215 52.5167 98.2388C52.5167 98.0431 52.5167 98.0431 52.321 98.0431H52.1253C51.9296 98.0431 51.5382 98.0431 51.1468 97.8474L51.7339 97.456L52.1253 97.2603L52.7124 96.8689L53.2994 96.4775C54.2779 95.6947 55.0607 94.9119 54.865 94.5205C54.4736 93.5421 53.8865 93.7378 53.4951 94.1292L53.2994 94.3249L52.9081 94.5205C52.321 94.9119 51.3425 95.499 50.5597 95.6947C49.3855 95.8904 48.7985 94.3249 49.3855 93.1507L49.5812 92.955C49.7769 92.7593 49.5812 92.7593 49.3855 92.5636L48.9942 92.3679C48.7985 92.1722 48.6028 92.1722 48.4071 91.9765H49.1898H49.9726H50.5597C52.1253 91.9765 53.8865 91.9765 53.8865 91.1937C53.6908 90.0196 52.7124 90.0196 52.1253 90.2153C51.5382 90.411 49.7769 90.2153 49.7769 89.0411C49.7769 88.8454 49.9726 88.6497 49.9726 88.454L50.1683 88.0626C50.364 87.8669 50.364 87.6712 50.364 87.4755C50.364 87.2798 50.1683 87.0842 49.9726 86.8885L49.7769 86.6928H49.9726C49.9726 86.6928 49.9726 86.6928 50.1683 86.6928H50.5597C50.9511 86.6928 51.5382 86.6928 52.1253 86.8885C52.5167 87.0842 52.908 87.2798 53.2994 87.8669L54.0822 88.6497C54.865 89.4325 55.8435 90.411 56.6262 90.411C58.1918 90.411 59.5617 88.0626 59.5617 83.366V81.6047V80.8219V80.2348V79.6478V79.2564C59.366 78.4736 59.366 78.0822 58.9746 77.8865L58.7789 77.6908L58.3875 77.4951L58.1918 77.2994C58.1918 77.2994 57.9961 77.1037 57.9961 76.908V76.5166C57.9961 76.3209 57.9961 75.9296 57.6047 75.7339C57.0176 75.5382 56.2349 76.3209 56.0392 79.4521V80.2348C56.0392 80.4305 56.0392 80.4305 56.0392 80.6262V81.6047V82.5832L55.8435 83.1703L55.6478 82.7789L55.4521 82.3875V82.1918L55.2564 81.6047L55.0607 81.0176C54.865 80.2348 54.6693 79.4521 54.6693 78.4736C54.6693 78.2779 54.6693 78.0822 54.6693 77.8865V76.908C54.6693 76.5166 54.6693 76.3209 54.4736 76.1253C54.4736 76.1253 54.2779 76.1252 54.0822 76.3209L53.8865 76.5166L53.2994 77.1037C52.7124 77.6908 51.9296 78.4736 50.9511 78.865L51.1468 78.4736L51.3425 78.0822L51.5382 77.6908C51.9296 76.908 52.321 75.7339 52.321 74.7554C52.321 74.5597 52.321 74.364 52.1253 74.1683V73.9726L52.321 73.3855L51.9296 72.9941L51.7339 72.7984C51.1468 72.0157 50.364 70.4501 50.364 66.3405C50.364 64.9706 50.5597 63.9922 50.7554 63.2094L50.9511 62.6223C51.1468 61.8395 51.3425 61.0568 51.3425 59.8826C51.3425 58.5127 49.7769 56.9472 48.0157 55.3816L47.2329 54.7945L46.4501 54.2074L46.0587 53.816L43.5147 52.0548L42.7319 51.4677L41.9491 50.8806C41.7535 50.6849 41.7534 50.6849 41.5578 50.4892L40.5793 49.7065L39.9922 49.1194L39.4051 48.5323L38.818 47.9452L38.4266 47.5538L38.2309 47.3581C38.2309 47.3581 38.2309 47.3581 38.2309 47.1624C38.0353 46.9667 38.4266 46.5753 38.6223 46.184L39.7965 44.8141L40.1879 44.227C40.775 43.4442 41.1664 42.6614 40.5793 42.2701C39.7965 41.683 39.4051 42.0744 38.818 42.8571L38.6223 43.2485L38.2309 44.0313C38.2309 44.227 38.0352 44.227 38.0352 44.4227C37.2525 45.5969 35.8826 46.771 35.2955 47.1624C35.0998 47.1624 35.0998 46.9667 35.0998 46.5753V45.0098V44.4227C35.0998 43.4442 34.9041 42.4658 34.3171 42.4658C32.9472 42.4658 32.7515 43.8356 32.9472 44.4227V44.6184C32.9472 44.8141 32.9472 44.8141 32.5558 44.8141H32.1644C31.5773 44.8141 30.9902 45.0098 30.4032 45.5969L30.2075 45.9883C30.2075 45.9883 30.2075 46.184 30.0118 46.184L29.8161 46.5753C29.4247 47.3581 28.8376 48.3366 28.6419 49.9022V49.7065V49.5108C28.4462 48.9237 28.2505 47.5538 28.6419 46.3797L28.8376 45.9883C28.8376 45.7926 28.8376 45.7926 28.4462 45.7926H28.0548H27.8591H27.4677H26.8807H26.0979L25.3151 45.9883L24.5323 46.184L23.1625 46.3797L21.2055 46.771C21.0098 46.771 20.8141 46.771 20.6184 46.9667C20.0313 47.1624 19.8356 47.3581 19.8356 48.3366V49.1194V49.9022V50.6849C19.8356 51.4677 19.8356 51.8591 19.8356 52.4462C19.8356 52.6419 19.6399 52.4462 19.6399 52.2505V52.0548V51.8591V51.6634C19.6399 51.6634 19.6399 51.6634 19.4443 51.6634H19.2486H18.8572C18.0744 51.8591 16.9002 51.8591 16.9002 50.6849C16.9002 49.7065 17.0959 49.5108 17.4873 49.3151L17.683 49.1194C17.8787 48.9237 18.0744 48.9237 18.0744 48.5323C18.0744 47.3581 17.2916 46.771 16.3131 46.771C15.7261 46.771 15.3347 47.1624 14.9433 47.5538L14.5519 47.9452C13.9648 48.5323 13.3777 49.1194 12.5949 49.1194C10.8337 49.1194 10.638 47.9452 10.638 47.3581C10.638 46.771 10.8337 46.5753 10.8337 46.184C10.8337 45.7926 10.4423 45.4012 10.0509 45.4012C9.85521 45.4012 10.2466 45.2055 10.8337 45.2055H11.0294L12.2035 45.4012C13.5734 45.5969 15.3347 45.4012 15.3347 44.227C15.3347 43.8356 14.9433 43.6399 14.5519 43.8356H13.9648C13.7691 43.8356 13.7691 43.8356 13.5734 43.8356L12.7906 43.6399C11.8122 43.4442 10.4423 43.0528 10.4423 41.4873C10.4423 40.7045 11.2251 40.3131 11.6165 40.1174H11.8122C11.8122 39.9217 12.0079 39.5303 12.0079 39.1389C12.0079 38.9432 12.0079 38.9432 12.3992 39.1389V38.7476L12.7906 38.9432L13.3777 39.3346L14.1605 40.1174L14.7476 40.7045L14.9433 40.9002L15.139 41.0959C15.5304 41.683 16.1174 41.4873 16.3131 41.2916H16.5088C16.7045 41.0959 17.0959 40.5088 16.1174 39.9217C14.9433 39.3346 14.9433 38.7476 14.9433 37.7691C14.9433 36.9863 15.5304 36.7906 15.9217 36.5949H16.1174C16.3131 36.5949 16.5088 35.8121 16.3131 35.4207V35.225C16.1174 34.638 17.683 36.0078 18.4658 37.5734C18.4658 37.7691 18.6615 37.9648 18.6615 38.1605V39.1389C18.6615 40.1174 18.8572 40.9002 20.0313 41.4873H20.4227H20.6184H20.8141C20.8141 41.4873 20.8141 41.4873 21.0098 41.4873H21.2055H21.4012L21.7926 41.2916L22.3797 41.0959C22.3797 41.0959 22.5754 41.0959 22.7711 40.9002L23.1625 40.7045L24.3366 40.3131L27.8591 38.9432L33.3386 36.9863C33.73 36.7906 34.5127 36.3992 34.1214 35.8121C33.73 35.0294 32.3601 34.8337 30.4032 36.2035L30.2075 36.3992C29.8161 36.7906 29.6204 36.5949 29.8161 36.2035L30.0118 36.0078L30.2075 35.6164C30.2075 35.6164 30.2075 35.4207 30.4032 35.4207L30.5989 35.0294C30.5989 35.0294 30.5989 34.8337 30.7945 34.8337L31.1859 34.4423C31.3816 34.2466 31.3816 34.0509 31.5773 34.0509L31.9687 33.6595C33.3386 31.8982 35.4912 30.137 37.4482 30.137C38.2309 30.137 38.4266 29.7456 38.4266 29.3542V29.1585C38.4266 28.7671 38.0352 28.3757 36.6654 28.3757C34.9041 28.3757 32.5558 30.137 31.5773 31.8982C31.5773 31.8982 31.3816 31.8982 31.1859 31.8982L30.5989 31.5069C30.2075 31.1155 29.4247 30.9198 28.4462 30.9198C27.272 30.9198 26.4893 31.1155 25.9022 31.1155L25.5108 31.3112H25.1194H24.9237C24.5323 31.3112 25.9022 29.3542 28.2505 29.3542C28.6419 29.3542 28.6419 28.7671 27.8591 28.18L27.6634 27.9843C27.272 27.7887 26.685 27.0059 26.0979 26.4188L25.5108 25.636L24.3366 24.0705C24.1409 23.8748 24.1409 23.8748 23.9452 23.6791C23.5538 23.2877 23.1625 23.8748 22.5754 24.8532L22.3797 25.2446L22.184 25.8317L21.9883 26.4188L21.7926 27.0059C21.7926 27.2016 21.5969 27.0059 21.5969 26.8102V26.6145V26.4188V26.2231C21.5969 26.0274 21.4012 26.0274 21.4012 26.0274L21.0098 25.8317C20.4227 25.636 19.8356 25.2446 19.8356 24.0705C19.8356 22.7006 20.6184 22.5049 21.4012 22.7006H21.5969L21.9883 22.8963C21.9883 22.8963 21.9883 22.8963 22.184 22.8963C22.9668 23.092 23.7495 22.1135 23.5538 21.3307C22.184 20.5479 21.4012 19.5695 20.227 19.5695H20.0313C18.6615 19.7652 16.7045 18.7867 16.7045 17.2211C16.7045 16.4384 17.0959 16.047 17.4873 15.8513L17.8787 15.6556H18.0744C18.2701 15.4599 18.2701 14.6771 18.2701 14.4814C18.2701 14.4814 18.2701 14.4814 18.4658 14.4814L18.6615 14.6771L19.0529 14.8728L19.4443 15.2642L19.8356 15.6556L20.0313 15.8513L20.4227 16.2427C20.6184 16.4384 20.6184 16.4384 20.8141 16.6341L21.4012 17.2211C21.9883 17.8082 22.184 18.0039 22.5754 17.8082C22.9668 17.6125 23.1625 16.6341 21.7926 15.4599C20.4227 14.2857 20.6184 12.9159 21.2055 12.1331C21.2055 12.1331 21.4012 12.1331 21.5969 12.1331H22.184C22.7711 12.1331 23.3581 12.1331 23.5538 11.7417C23.5538 11.3503 23.7495 11.546 23.7495 11.7417V11.9374V12.3288L23.9452 12.7202V13.5029V14.2857L24.1409 14.6771V14.8728V15.2642C24.1409 16.4384 24.5323 16.6341 24.9237 16.6341C25.3151 16.6341 25.7065 16.4384 25.5108 14.6771C25.3151 13.1115 25.7065 12.7202 26.0979 12.5245L26.2936 12.3288C26.685 12.1331 27.272 12.1331 27.6634 12.5245C28.0548 12.9159 28.8376 12.3288 28.8376 11.7417V11.9374V12.1331V12.5245C29.0333 13.1115 29.0333 13.8943 28.4462 14.6771C28.2505 14.8728 28.2505 15.0685 28.0548 15.0685L27.272 15.8513C26.4893 16.6341 25.9022 17.6125 26.685 19.1781L26.8807 19.5695L34.7084 27.593C34.9041 27.593 35.0998 27.3973 34.7084 27.0059C34.317 26.4188 34.317 25.8317 34.7084 25.4403V25.2446L34.9041 25.4403L35.2955 25.636L35.6869 25.8317C35.6869 25.8317 35.8826 25.8317 35.8826 26.0274L36.274 26.2231C37.6439 26.8102 39.6008 27.3973 42.5362 27.0059C47.82 26.4188 49.9726 22.7006 49.1898 21.9178L49.5812 22.1135L49.1898 22.5049L48.9942 22.7006L48.6028 23.092C47.6243 23.6791 46.4501 24.4618 45.276 24.4618C43.1233 24.4618 41.9491 22.3092 42.3405 20.9393V20.7436L42.5362 20.9393L42.7319 21.135C43.1233 21.5264 44.1018 22.1135 45.276 22.1135C47.0372 22.1135 48.9942 19.9609 48.6028 18.7867C48.6028 18.591 48.4071 18.591 48.0157 18.7867L47.6243 18.591L45.6673 19.1781L44.8846 19.3738C44.6889 19.3738 44.6889 19.3738 44.4932 19.5695L43.7104 19.7652C42.3405 20.1566 40.3836 20.3523 38.4266 20.3523C32.1644 20.3523 31.1859 14.09 35.6869 11.546L35.4912 11.7417L35.2955 12.1331V12.3288V12.7202V13.1115V13.5029V13.8943C34.9041 16.047 35.4912 18.7867 40.5793 18.7867C41.5578 18.7867 42.5362 18.7867 43.319 18.591L44.1018 18.3953C44.2975 18.3953 44.6889 18.3953 44.8846 18.1996L45.6673 18.0039L46.2544 17.8082L46.8415 17.6125L47.2329 17.4168L47.6243 17.2211L48.2114 17.0254V16.8297V16.6341C48.0157 16.047 47.2329 14.6771 45.4716 14.6771C43.7104 14.6771 42.9276 16.047 42.5362 16.6341L42.3405 16.8297V17.0254L42.1448 16.8297L41.7534 17.2211C41.1664 16.8297 40.1879 15.6556 40.5793 14.2857C40.5793 14.09 40.775 14.09 40.9707 14.09H41.3621H41.7534C42.3405 13.8943 42.9276 13.6986 42.9276 12.9159C42.9276 12.5245 42.7319 12.3288 42.5362 12.3288H42.3405C42.1448 12.3288 41.9491 12.5245 41.7534 12.7202L41.5578 13.1115C41.3621 13.3072 41.3621 13.5029 40.9707 13.5029C40.1879 13.5029 40.1879 11.1546 41.7534 11.1546H41.9491C42.3405 11.1546 42.9276 11.1546 43.1233 10.7632V10.5675C43.1233 9.98043 44.4932 9.39335 47.4286 9.19765H48.4071C48.7985 9.19765 49.3855 9.19765 49.9726 9.19765C52.1253 9.19765 53.4951 9.58904 54.2779 9.78474L54.6693 9.98043L54.865 10.1761L55.0607 10.3718L55.2564 10.5675V10.3718C55.4521 9.58904 56.0392 8.61057 57.409 8.61057ZM36.6654 53.6204H39.2094H40.9707H42.1448H42.9276H43.5147H43.9061H44.1018H44.2975C44.4932 53.6204 44.4932 53.816 44.4932 54.0117V54.2074C44.4932 54.4031 44.4932 54.7945 45.0803 54.9902C45.863 55.1859 48.2114 57.1429 48.2114 58.1213C48.2114 58.317 48.0157 58.7084 47.82 58.9041L47.2329 59.6869C47.0372 60.0783 46.8415 60.4697 47.2329 61.2524C48.2114 62.6223 48.9942 62.6223 49.5812 62.6223H49.3855C49.3855 62.6223 49.3855 62.6223 49.1898 62.6223L48.9942 62.818C48.4071 63.0137 47.2329 63.2094 45.4716 63.2094H45.0803C44.2975 63.2094 43.5147 63.0137 42.7319 62.818L40.5793 62.4266C39.4051 62.2309 38.4266 62.0352 37.2525 62.2309H37.0568H36.6654C34.5127 62.6223 33.1429 64.5793 34.1214 70.8415V71.4286C34.1214 71.6243 34.5127 71.82 35.2955 71.82C36.4697 71.82 39.4051 73.1898 41.1664 76.1253L40.3836 75.7339V75.3425L39.7965 75.1468L39.2094 74.9511C37.6439 74.1683 36.0783 73.5812 35.4912 74.5597C35.0998 75.3425 35.2955 75.9296 35.8826 76.3209C36.0783 76.3209 35.6869 76.5166 35.0998 76.7123L34.5127 76.908L33.5343 77.2994H32.5558L30.5989 77.8865L27.0763 78.865C26.4893 79.0607 26.2936 79.4521 27.4677 80.2348L27.6634 80.4305L28.2505 80.8219L28.8376 81.2133L29.0333 81.409C29.229 81.6047 29.4247 81.8004 29.229 81.8004H28.6419C28.0548 81.8004 27.4677 81.8004 27.4677 82.1918C27.4677 82.5832 27.272 83.5616 26.2936 83.5616C25.3151 83.5616 24.728 82.9746 24.728 82.1918V81.6047V81.2133C24.728 80.4305 24.3366 79.8434 23.5538 79.8434C22.3797 79.8434 21.5969 81.0176 21.5969 83.1703C21.5969 84.7358 20.0313 85.1272 19.4443 85.1272C18.8572 85.1272 18.2701 84.9315 18.2701 83.953C18.2701 83.7573 17.8787 83.7573 17.4873 83.7573H17.0959C16.9002 83.7573 17.0959 83.5616 17.4873 83.1703L17.8787 82.9746L18.4658 82.5832L19.0529 82.1918L20.227 81.2133C20.6184 81.0176 20.6184 80.2348 20.4227 80.0391L20.227 79.8434C19.8356 79.6478 19.4443 79.4521 18.6615 80.0391C17.8787 80.8219 16.9002 81.409 16.1174 81.409C15.3347 81.409 14.5519 80.6262 14.5519 79.8434V79.6478V78.865C14.5519 78.4736 14.5519 77.8865 13.9648 77.6908L13.7691 77.4951C13.5734 77.2994 13.5734 77.2994 13.9648 77.2994H14.3562H15.7261H17.2916H17.8787H18.4658C19.2486 77.2994 20.0313 77.1037 20.0313 76.908C20.0313 75.9296 19.0529 75.7339 18.6615 75.7339H18.0744C17.0959 75.7339 15.7261 75.7339 15.7261 74.364C15.7261 73.9726 15.9217 73.7769 16.1174 73.5812H16.3131C16.3131 73.3855 16.5088 73.3855 16.5088 73.1898C16.5088 72.7984 15.9217 72.7984 15.7261 72.7984L15.9217 72.6027L16.1174 72.407C16.7045 72.2113 17.8787 71.82 19.0529 72.7984C19.2486 72.9941 19.6399 73.3855 19.8356 73.5812L20.227 74.1683L20.6184 74.7554C21.2055 75.5382 21.7926 76.1253 22.7711 76.1253H23.1625C25.1194 75.9296 29.8161 74.1683 29.8161 68.8845C29.8161 67.319 29.4247 65.9491 29.0333 64.7749L28.8376 64.1879L28.6419 63.6008L28.0548 62.4266C28.0548 62.2309 28.0548 62.2309 28.0548 62.2309C28.0548 62.0352 28.0548 62.0352 28.2505 62.0352H28.6419C29.0333 62.0352 29.6204 61.8395 29.6204 61.0568C29.6204 59.4912 20.227 59.2955 17.2916 62.2309V62.0352V61.8395V61.6438V61.4481L17.4873 61.0568C18.0744 60.0783 19.4443 58.7084 22.5754 58.7084C23.3581 58.7084 23.9452 58.9041 24.3366 58.9041L24.9237 59.0998C25.5108 59.2955 25.9022 59.2955 26.4893 59.0998C26.685 59.0998 26.685 58.9041 26.4893 58.7084L25.7065 57.7299C25.1194 57.1429 24.5323 56.5558 24.728 55.3816L24.9237 55.5773C25.5108 56.1644 26.8807 57.3386 28.4462 57.3386C28.6419 57.3386 28.6419 57.3386 28.8376 57.1429L29.0333 56.9472L29.4247 56.3601L29.8161 55.9687L30.2075 55.5773C31.3816 54.7945 33.3386 53.6204 36.6654 53.6204ZM46.2544 41.8787C45.863 41.8787 45.4716 42.0744 45.4716 42.4658V42.6614V42.8571V43.0528C45.4716 43.0528 45.4716 43.2485 45.276 43.2485L45.0803 43.6399L44.8846 44.0313C44.2975 44.8141 43.5147 45.7926 41.7534 46.5753C41.5578 46.771 41.3621 47.1624 41.5578 47.5538C41.7534 47.7495 41.9491 47.9452 42.3405 47.9452H42.5362C45.0803 46.771 46.2544 45.2055 46.6458 44.0313L46.8415 43.6399V43.4442V43.2485V42.8571V42.6614C46.8415 42.2701 46.6458 41.8787 46.2544 41.8787ZM51.7339 41.4873C51.3425 41.4873 51.1468 41.683 50.9511 42.0744V42.4658V42.6614V42.8571C50.7554 43.8356 50.1683 45.5969 48.0157 46.771C47.82 46.9667 47.6243 47.3581 47.82 47.7495C48.0157 47.9452 48.2114 48.1409 48.6028 48.1409H48.7985C51.1468 46.9667 52.1253 45.0098 52.5167 43.6399V43.2485V43.0528V42.6614V42.4658V42.2701C52.321 41.683 52.1253 41.4873 51.7339 41.4873ZM42.9276 32.4853C42.7319 32.8767 42.9276 33.2681 43.1233 33.6595L43.319 33.8552C43.5147 34.0509 44.1018 34.638 44.2975 35.4207C44.6889 36.7906 44.2975 38.7476 43.1233 40.7045C42.9276 40.9002 42.9276 41.4873 43.319 41.683C43.5147 41.8787 43.5147 41.8787 43.7104 41.8787C43.9061 41.8787 44.2975 41.683 44.4932 41.4873C45.863 39.1389 46.4501 36.9863 46.0587 35.225V34.8337C45.863 33.6595 45.0803 33.0724 44.6889 32.681L44.4932 32.4853L43.9061 32.2896C43.5147 32.0939 42.9276 32.0939 42.9276 32.4853ZM39.2094 33.0724L38.818 33.2681L38.6223 33.4638L38.4266 33.6595L38.0352 34.0509C37.0568 35.0294 36.0783 36.7906 35.6869 39.726C35.6869 40.1174 35.8826 40.5088 36.274 40.5088H36.4697H36.6654C36.8611 40.5088 37.2525 40.3131 37.4482 39.9217V39.726C37.6439 36.9863 38.818 35.4207 39.6008 34.638L39.7965 34.4423L39.9922 34.2466C40.3836 34.0509 40.3836 33.4638 40.1879 33.2681C39.9922 33.0724 39.6008 33.0724 39.2094 33.0724ZM48.4071 27.9843C48.2114 28.3757 48.2114 28.7671 48.6028 28.9628L48.7985 29.1585L48.9942 29.3542L49.1898 29.5499C49.1898 29.5499 49.1898 29.5499 49.1898 29.7456L49.3855 29.9413C49.9726 30.9198 50.5597 32.4853 49.9726 35.4207L49.7769 36.0078C49.5812 36.3992 49.7769 36.5949 50.1683 36.7906H50.364H50.5597C50.7554 36.7906 51.1468 36.5949 51.3425 36.2035C52.321 31.8982 50.9511 29.5499 50.1683 28.5714L49.9726 28.3757L49.7769 28.18L49.5812 27.7887L49.3855 27.593C48.9942 27.593 48.6028 27.593 48.4071 27.9843ZM79.5225 11.9374L79.9139 12.7202L80.1096 13.1115C80.6967 14.2857 81.8709 15.6556 83.045 15.4599C83.4364 15.4599 83.4364 14.8728 83.2407 14.2857L83.045 13.5029L82.8493 13.1115V12.7202C82.8493 12.5245 82.8493 12.5245 82.8493 12.3288L83.2407 12.7202L83.6321 13.1115L84.0235 13.5029C84.6106 14.09 85.1977 14.6771 85.7848 15.0685C86.9589 15.8513 87.1546 18.1996 86.5675 19.5695C85.9805 20.5479 85.002 21.5264 84.8063 22.5049V22.7006C84.6106 23.2877 84.2192 24.0704 83.6321 25.2446L83.2407 26.0274C82.8493 26.6145 82.6536 27.0059 82.0666 27.593L81.2838 28.3757C80.6967 29.1585 79.9139 29.9413 79.1311 30.7241L78.7398 31.1155L76.7828 29.3542L77.3699 28.7671L77.957 28.18L78.5441 27.593L78.7398 27.3973L79.3268 26.8102L79.9139 26.2231C81.2838 24.6575 82.4579 23.092 82.2623 21.9178H82.0666L81.8709 21.7221C81.8709 21.7221 81.8709 21.7221 81.6752 21.7221L81.2838 21.5264C80.501 20.9393 79.3268 19.7652 79.5225 18.0039L79.7182 18.3953C79.7182 18.3953 79.7182 18.3953 79.9139 18.591L80.1096 18.9824C80.6967 19.7652 81.6752 20.5479 82.2623 19.9609C83.2407 19.3738 82.4579 17.8082 81.2838 16.6341L80.8924 16.2427V15.6556L80.6967 15.4599C79.9139 14.6771 79.5225 13.5029 79.5225 12.7202V12.3288V11.9374ZM51.7339 18.3953C51.5382 18.7867 51.7339 19.1781 52.1253 19.3738C54.2779 20.1566 56.2349 21.3307 56.4306 21.9178H56.2349C56.2349 21.9178 56.2349 21.9178 56.0392 21.9178H55.8435H55.6478H55.2564H55.0607H54.4736H53.4951C53.2994 21.9178 52.908 22.1135 52.7124 22.3092C52.5167 22.5049 52.7124 22.7006 52.7124 23.092L52.9081 23.4834L53.1037 23.6791V23.8748C53.1037 23.8748 53.1037 23.8748 53.1037 24.0705V24.4618V24.6575V25.0489V25.2446V25.8317C53.1037 26.6145 53.1037 27.593 52.9081 28.5714C52.9081 28.9628 53.1037 29.1585 53.6908 29.3542H53.8865H54.0822C54.2779 29.3542 54.6693 28.9628 54.6693 28.5714C54.6693 28.18 54.6693 27.7887 54.6693 27.593V26.6145C54.6693 26.4188 54.6693 26.4188 54.6693 26.2231V25.4403C54.6693 24.4618 54.4736 23.8748 54.2779 23.2877C55.4521 23.2877 56.4305 23.092 57.0176 22.5049C57.2133 22.3092 57.409 21.9178 57.409 21.5264C57.409 20.1566 55.4521 18.9824 53.8865 18.1996L53.2994 18.0039L52.7124 17.8082L52.321 17.6125H52.1253C52.321 17.8082 51.9296 18.0039 51.7339 18.3953ZM49.9726 10.7632H46.4501C45.863 10.7632 45.863 10.9589 45.6673 11.1546C45.6673 11.546 45.863 11.7417 45.863 11.9374L46.0587 12.1331H48.0157H48.2114C48.4071 12.1331 48.7985 12.1331 48.7985 12.3288C48.7985 12.5245 48.2114 12.7202 47.6243 12.9159H47.2329H46.6458L46.8415 13.1115C47.0372 13.5029 47.4286 13.6986 48.2114 13.6986C49.3855 13.6986 49.7769 12.7202 49.7769 11.9374V11.7417V11.546C49.9726 11.546 50.5597 11.546 50.5597 11.1546C50.7554 10.9589 50.364 10.7632 49.9726 10.7632ZM49.1898 0L49.7769 0.195695L50.1683 0.587084L50.364 0.782779L50.9511 0.978474C51.7339 1.56556 52.5167 2.34834 52.5167 3.13112C52.5167 4.10959 51.5382 4.50098 50.9511 4.69667H50.7554C51.1468 5.67515 51.9296 6.06654 52.321 6.26223H52.5167H54.0822C55.2564 6.26223 55.2564 5.28376 55.2564 4.89237V4.50098H55.0607C54.6693 4.50098 53.8865 4.10959 53.8865 3.32681C53.8865 2.34834 55.2564 1.56556 56.6262 1.17417L57.0176 0.978474L57.409 0.782779L57.9961 0.587084L57.6047 2.15264H57.409C57.0176 2.15264 56.6262 2.54403 56.6262 3.13112C56.6262 3.32681 56.8219 3.52251 57.0176 3.7182H57.2133L56.0392 7.63209H43.1233L42.1448 3.91389C42.3405 3.7182 42.7319 3.5225 42.7319 3.13112C42.7319 2.54403 42.3405 2.15264 41.9491 2.15264H41.7534L41.1664 0.391389C42.3405 0.587084 45.276 1.76125 45.276 3.13112C45.276 4.10959 44.4932 4.50098 44.1018 4.50098H43.9061C43.9061 5.67515 44.6889 6.06654 45.0803 6.06654H45.276H45.4716H47.2329C48.2114 6.06654 48.4071 4.89237 48.4071 4.50098V4.30528H48.2114H47.82C47.2329 4.10959 46.6458 3.91389 46.6458 3.32681C46.6458 2.34834 47.4286 1.56556 48.2114 0.782779L48.6028 0.391389L48.9942 0H49.1898ZM49.5812 2.34834C48.9942 2.34834 48.6028 2.73973 48.6028 3.32681C48.6028 3.91389 48.9942 4.30528 49.5812 4.30528C50.1683 4.30528 50.5597 3.91389 50.5597 3.32681C50.5597 2.73973 50.1683 2.34834 49.5812 2.34834Z" fill="#2362a2"/>
</svg>
